<svg width="683" height="284" viewBox="0 0 683 284" fill="none" xmlns="http://www.w3.org/2000/svg">
<path d="M240.922 65.0436C258.683 62.1471 270.744 45.3344 267.861 27.4916C264.978 9.64816 248.242 -2.46861 230.481 0.427832C212.721 3.32427 200.66 20.137 203.543 37.9799C206.426 55.8233 223.161 67.94 240.922 65.0436Z" fill="currentColor"></path>
<path d="M111.56 192.573C126.384 169.224 139.199 149.051 161.833 139.291L177.076 132.728V82.433H2.99457V133.002H91.3962C83.0555 143.481 76.0236 154.536 69.3505 165.028L69.3382 165.046L69.1174 165.395L69.0867 165.442C53.5229 189.95 40.0806 211.112 14.6988 222.779L0 229.532V279.469H177.893V228.901H86.2035C96.003 217.016 103.981 204.458 111.518 192.573H111.56Z" fill="currentColor"></path>
<path d="M194.665 132.98H222.053V279.448H272.368V82.433H194.665V132.98Z" fill="currentColor"></path>
<path d="M395.235 228.88L442.199 82.433H495.069L431.877 279.448H347.662L285.328 82.433H338.136L384.472 228.88H395.235Z" fill="currentColor"></path>
<path fill-rule="evenodd" clip-rule="evenodd" d="M538.37 195.245C543.73 216.679 559.476 234.791 584.414 236.431L584.434 236.452C597.417 235.99 608.703 229.763 617.099 220.55H675.035C654.684 269.814 598.464 299.979 544.881 275.094C466.509 238.304 466.509 120.381 544.881 83.6111C612.241 52.3321 683.85 107.991 682.992 179.342C683.055 184.748 682.657 190.049 681.924 195.245H538.37ZM630.437 161.525C622.479 133.422 594.422 112.261 564.857 127.028C550.891 134.474 542.244 147.263 538.496 161.525H630.437Z" fill="currentColor"></path>
</svg>