<svg width="24" height="24" viewBox="0 0 24 24" fill="none" xmlns="http://www.w3.org/2000/svg">
<path d="M6.99947 18.0002C5.75174 18.0002 4.55512 17.5261 3.67285 16.6822C2.79058 15.8383 2.29492 14.6937 2.29492 13.5002C2.29492 12.3067 2.79058 11.1621 3.67285 10.3182C4.55512 9.4743 5.75174 9.0002 6.99947 9.0002C7.29415 7.68737 8.15623 6.53368 9.39605 5.79291C10.01 5.42612 10.6981 5.17174 11.4212 5.04431C12.1444 4.91687 12.8883 4.91887 13.6106 5.0502C14.3328 5.18152 15.0193 5.43959 15.6308 5.80968C16.2422 6.17976 16.7667 6.65461 17.1742 7.20712C17.5818 7.75963 17.8644 8.37898 18.006 9.02979C18.1476 9.68061 18.1454 10.3502 17.9995 11.0002H18.9995C19.9277 11.0002 20.818 11.3689 21.4743 12.0253C22.1307 12.6817 22.4995 13.5719 22.4995 14.5002C22.4995 15.4285 22.1307 16.3187 21.4743 16.9751C20.818 17.6314 19.9277 18.0002 18.9995 18.0002H17.9995M14.9995 15L11.9995 12L8.99951 15M11.9995 12V21" stroke="black" stroke-width="1.5" stroke-linecap="round" stroke-linejoin="round"></path>
</svg>