<svg width="24" height="24" viewBox="0 0 24 24" fill="none" xmlns="http://www.w3.org/2000/svg">
<path d="M19.0005 18.0002C19.9287 18.0002 20.819 17.6314 21.4754 16.9751C22.1317 16.3187 22.5005 15.4285 22.5005 14.5002C22.5005 13.5719 22.1317 12.6817 21.4754 12.0253C20.819 11.3689 19.9287 11.0002 19.0005 11.0002H18.0005C18.1464 10.3502 18.1486 9.68061 18.007 9.02979C17.8654 8.37898 17.5828 7.75963 17.1752 7.20712C16.7677 6.65461 16.2432 6.17976 15.6318 5.80968C15.0203 5.43959 14.3339 5.18152 13.6116 5.0502C12.8893 4.91887 12.1454 4.91687 11.4223 5.04431C10.6991 5.17174 10.011 5.42612 9.39707 5.79291C8.15724 6.53368 7.29516 7.68737 7.00048 9.0002C5.93443 8.95749 4.88602 9.2706 4.03475 9.88589C3.18348 10.5012 2.5823 11.3804 2.33415 12.373C2.086 13.3656 2.20631 14.4099 2.67448 15.327C3.14265 16.2441 3.92956 16.977 4.90048 17.4002M12 13.0002V22.0002M15 19.0002L12 22.0002L9 19.0002" stroke="black" stroke-width="1.5" stroke-linecap="round" stroke-linejoin="round"></path>
</svg>